<svg width="30" height="30" viewBox="0 0 30 30" fill="none" xmlns="http://www.w3.org/2000/svg">
<rect width="30" height="28.4663" rx="14.2331" transform="matrix(1 0 0 -1 0 29.4152)" fill="#1D1C1C" fill-opacity="0.3"/>
<rect x="2" y="2.84668" width="26" height="24.6708" rx="12.3354" fill="#1D1C1C" fill-opacity="0.3"/>
<rect x="4.4375" y="5.15955" width="21.125" height="20.045" rx="10.0225" fill="#D1D1D1"/>
<g clip-path="url(#clip0_467_60)">
<path d="M20.6717 14.1438C20.6006 14.1164 20.5611 14.0874 20.5619 14.0011C20.5667 13.5625 20.5659 13.1232 20.5643 12.6847C20.5627 12.2101 20.5769 11.7339 20.5509 11.2601C20.4759 9.88092 19.1223 8.85795 17.7608 9.13566C16.6268 9.36708 15.8489 10.3077 15.8482 11.457C15.8466 14.2678 15.8482 17.0794 15.8474 19.8902C15.8474 21.0764 14.8468 21.9417 13.6725 21.7455C12.6459 21.5737 11.9675 20.648 12.1507 19.4792C12.1681 19.4752 12.1855 19.4713 12.2036 19.4682C13.708 19.1708 14.8579 17.9306 14.9992 16.4149C15.0466 15.9074 15.0221 15.3935 15.0276 14.882C15.03 14.6898 15.0276 14.1187 15.0276 13.9673C15.0276 13.0032 15.0403 12.0391 15.0229 11.0749C15.0111 10.434 14.707 9.93427 14.1669 9.58203C13.8715 9.38905 13.5461 9.30903 13.2026 9.29726V10.5226C13.2026 10.5226 13.2081 10.5226 13.2105 10.5226C13.543 10.5375 13.7949 10.7909 13.7949 11.1212C13.7981 12.5239 13.8099 13.9273 13.791 15.33C13.7752 16.4942 13 18.0176 11.5 18.0176C8.3926 18.0176 9.22197 13.5 9.22197 11.1212C9.22197 10.6725 9.47123 10.5211 9.91979 10.5203C9.94348 10.5203 9.96638 10.5203 9.99007 10.5203V9.29805C9.93479 9.29805 9.8803 9.29805 9.82502 9.29805C9.0282 9.31217 8.33879 9.81346 8.09161 10.5611C8.0537 10.6756 8.03001 10.7949 8 10.9125V16.3451C8.04896 16.5789 8.07502 16.8189 8.15005 17.0441C8.5836 18.3558 9.48308 19.1661 10.8406 19.4705C10.854 19.4737 10.8667 19.4776 10.899 19.487C10.899 19.6431 10.8967 19.8047 10.899 19.9655C10.9069 20.5351 11.0562 21.0654 11.365 21.5455C11.8941 22.3661 12.6475 22.8462 13.6227 22.9756C13.6535 22.9795 13.6836 22.9913 13.7144 22.9992H14.2608C14.3856 22.9764 14.5112 22.9576 14.6352 22.9293C16.0906 22.6014 17.0754 21.38 17.0769 19.8957C17.0785 17.1163 17.0769 14.3368 17.0769 11.5574C17.0769 11.4985 17.0769 11.4397 17.0785 11.3809C17.1022 10.8058 17.5903 10.3289 18.1691 10.3155C18.8293 10.2998 19.3276 10.798 19.3316 11.4868C19.3363 12.3144 19.3308 13.1428 19.3347 13.9705C19.3347 14.0748 19.2984 14.1156 19.2021 14.1517C18.1936 14.5337 17.6613 15.654 17.9977 16.6754C18.3365 17.7031 19.4216 18.293 20.4656 18.0176C21.3232 17.7909 21.9463 17.0402 21.9953 16.1749C22.0458 15.2751 21.5206 14.4678 20.6709 14.1446L20.6717 14.1438Z" fill="#302F2F"/>
<path d="M10.5112 10.7714C11.0036 10.7714 11.4028 10.3748 11.4028 9.88569C11.4028 9.39654 11.0036 9 10.5112 9C10.0188 9 9.61963 9.39654 9.61963 9.88569C9.61963 10.3748 10.0188 10.7714 10.5112 10.7714Z" fill="#302F2F"/>
<path d="M12.5786 10.7714C13.071 10.7714 13.4702 10.3748 13.4702 9.88569C13.4702 9.39654 13.071 9 12.5786 9C12.0862 9 11.687 9.39654 11.687 9.88569C11.687 10.3748 12.0862 10.7714 12.5786 10.7714Z" fill="#302F2F"/>
</g>
<defs>
<clipPath id="clip0_467_60">
<rect width="14" height="14" fill="white" transform="translate(8 9)"/>
</clipPath>
</defs>
</svg>
