<svg width="333" height="28" viewBox="0 0 333 28" fill="none" xmlns="http://www.w3.org/2000/svg">
<path d="M19.18 0.189999H21.67V27.37H19.18V0.189999ZM7.36 2.29C11.38 2.29 14.26 5.98 14.26 11.74C14.26 17.53 11.38 21.22 7.36 21.22C3.37 21.22 0.49 17.53 0.49 11.74C0.49 5.98 3.37 2.29 7.36 2.29ZM7.36 4.54C4.72 4.54 2.86 7.36 2.86 11.74C2.86 16.15 4.72 19.03 7.36 19.03C10.03 19.03 11.86 16.15 11.86 11.74C11.86 7.36 10.03 4.54 7.36 4.54ZM32.3077 16.57H34.7977V27.55H32.3077V16.57ZM41.9377 16.57H44.4277V27.55H41.9377V16.57ZM26.0677 15.7H50.6677V17.77H26.0677V15.7ZM37.0477 1.18H39.2377V2.68C39.2377 7.9 33.9577 11.65 28.3477 12.67L27.3577 10.63C32.2777 9.85 37.0477 6.58 37.0477 2.68V1.18ZM37.4977 1.18H39.6577V2.68C39.6577 6.52 44.4877 9.88 49.3777 10.63L48.3577 12.67C42.7777 11.65 37.4977 7.84 37.4977 2.68V1.18ZM61.4853 2.17C65.7153 2.17 68.7453 4.78 68.7453 8.56C68.7453 12.37 65.7153 14.98 61.4853 14.98C57.2553 14.98 54.1953 12.37 54.1953 8.56C54.1953 4.78 57.2553 2.17 61.4853 2.17ZM61.4853 4.33C58.6653 4.33 56.6253 6.04 56.6253 8.56C56.6253 11.08 58.6653 12.82 61.4853 12.82C64.2753 12.82 66.3153 11.08 66.3153 8.56C66.3153 6.04 64.2753 4.33 61.4853 4.33ZM72.2853 0.189999H74.7753V27.37H72.2853V0.189999ZM53.1753 21.43L52.8153 19.36C57.7653 19.36 64.6053 19.33 70.5153 18.4L70.7253 20.23C64.6353 21.4 58.0053 21.43 53.1753 21.43ZM107.19 0.249999H109.56V16.36H107.19V0.249999ZM102.81 7.18H107.94V9.25H102.81V7.18ZM101.37 0.73H103.74V16.21H101.37V0.73ZM91.3805 17.86H109.56V27.34H107.1V19.9H91.3805V17.86ZM87.9305 2.56H98.4005V14.32H87.9305V2.56ZM96.0605 4.51H90.2405V12.37H96.0605V4.51ZM131.868 0.219999H134.358V16.57H131.868V0.219999ZM133.668 7.24H138.378V9.34H133.668V7.24ZM116.748 18.01H134.358V27.34H131.868V20.05H116.748V18.01ZM114.438 1.9H116.898V6.13H124.548V1.9H126.978V14.74H114.438V1.9ZM116.898 8.11V12.76H124.548V8.11H116.898ZM152.166 0.669999C158.136 0.669999 161.706 2.35 161.706 5.38C161.706 8.41 158.136 10.09 152.166 10.09C146.166 10.09 142.626 8.41 142.626 5.38C142.626 2.35 146.166 0.669999 152.166 0.669999ZM152.166 2.56C147.726 2.56 145.176 3.58 145.176 5.38C145.176 7.18 147.726 8.2 152.166 8.2C156.576 8.2 159.126 7.18 159.126 5.38C159.126 3.58 156.576 2.56 152.166 2.56ZM139.896 11.89H164.406V13.9H139.896V11.89ZM142.866 16.21H161.286V22.33H145.386V25.63H142.926V20.53H158.826V18.13H142.866V16.21ZM142.926 25.09H162.096V27.04H142.926V25.09ZM193.671 0.249999H196.161V15.4H193.671V0.249999ZM178.251 16.93H196.341V18.94H178.251V16.93ZM177.981 24.97H196.641V26.98H177.981V24.97ZM181.971 17.47H184.401V25.84H181.971V17.47ZM190.191 17.47H192.651V25.84H190.191V17.47ZM181.161 2.56H183.231V4.78C183.231 9.64 180.141 13.69 175.581 15.31L174.321 13.33C178.401 11.95 181.161 8.53 181.161 4.78V2.56ZM181.641 2.56H183.711V4.78C183.711 8.32 186.531 11.56 190.551 12.85L189.291 14.8C184.791 13.3 181.641 9.43 181.641 4.78V2.56ZM174.981 2.02H189.831V4.03H174.981V2.02ZM207.789 2.29C211.719 2.29 214.539 5.98 214.539 11.74C214.539 17.53 211.719 21.22 207.789 21.22C203.829 21.22 201.039 17.53 201.039 11.74C201.039 5.98 203.829 2.29 207.789 2.29ZM207.789 4.54C205.179 4.54 203.409 7.36 203.409 11.74C203.409 16.15 205.179 19.03 207.789 19.03C210.399 19.03 212.169 16.15 212.169 11.74C212.169 7.36 210.399 4.54 207.789 4.54ZM220.419 0.189999H222.879V27.37H220.419V0.189999ZM213.729 10.54H221.499V12.58H213.729V10.54ZM230.246 13.21H248.876V15.25H230.246V13.21ZM227.156 21.61H251.726V23.68H227.156V21.61ZM230.246 2.71H248.606V4.78H232.736V14.11H230.246V2.71ZM273.464 0.219999H275.984V15.13H273.464V0.219999ZM255.134 12.52H257.324C262.244 12.52 265.874 12.37 270.224 11.65L270.494 13.72C266.024 14.41 262.364 14.56 257.324 14.56H255.134V12.52ZM255.074 1.54H267.374V8.89H257.564V13.87H255.134V6.94H264.944V3.55H255.074V1.54ZM258.434 16.48H260.894V19.66H273.524V16.48H275.984V26.98H258.434V16.48ZM260.894 21.64V24.94H273.524V21.64H260.894ZM300.062 0.219999H302.552V27.34H300.062V0.219999ZM282.062 2.86H284.522V19.66H282.062V2.86ZM282.062 18.19H284.282C288.392 18.19 292.682 17.89 297.272 16.93L297.572 19.06C292.862 20.02 288.572 20.35 284.282 20.35H282.062V18.19ZM325.279 0.189999H327.799V27.37H325.279V0.189999ZM327.199 10.9H332.239V13H327.199V10.9ZM308.089 18.52H310.219C315.229 18.52 318.739 18.34 322.789 17.59L323.059 19.69C318.889 20.47 315.319 20.62 310.219 20.62H308.089V18.52ZM308.089 2.83H320.689V4.87H310.549V19.45H308.089V2.83Z" fill="white" fill-opacity="0.5"/>
</svg>