<svg width="56" height="20" viewBox="0 0 56 20" fill="none" xmlns="http://www.w3.org/2000/svg">
<rect y="0.857056" width="56" height="18.9775" rx="6" fill="#97FC39" fill-opacity="0.3"/>
<path d="M10.18 6.94676H11.5V7.88276C11.5 9.98276 10.48 11.8788 8.344 12.5748L7.528 11.3268C9.376 10.7268 10.18 9.28676 10.18 7.88276V6.94676ZM10.504 6.94676H11.812V7.88276C11.812 9.20276 12.604 10.5588 14.416 11.1348L13.6 12.3708C11.512 11.7108 10.504 9.89876 10.504 7.88276V6.94676ZM7.948 6.50276H13.996V7.76276H7.948V6.50276ZM15.112 5.72276H16.72V13.7388H15.112V5.72276ZM9.316 15.3588H16.996V16.6308H9.316V15.3588ZM9.316 13.0188H10.912V15.9948H9.316V13.0188ZM25.7551 5.71076H27.2671V12.6708H25.7551V5.71076ZM24.3991 8.44676H26.1751V9.74276H24.3991V8.44676ZM23.4511 5.92676H24.9391V12.3108H23.4511V5.92676ZM17.7511 6.85076H23.1391V8.07476H17.7511V6.85076ZM20.4631 8.43476C21.8551 8.43476 22.8631 9.22676 22.8631 10.3788C22.8631 11.5308 21.8551 12.3108 20.4631 12.3108C19.0711 12.3108 18.0631 11.5308 18.0631 10.3788C18.0631 9.22676 19.0711 8.43476 20.4631 8.43476ZM20.4631 9.57476C19.8751 9.57476 19.4791 9.86276 19.4791 10.3788C19.4791 10.8948 19.8751 11.1828 20.4631 11.1828C21.0391 11.1828 21.4351 10.8948 21.4351 10.3788C21.4351 9.86276 21.0391 9.57476 20.4631 9.57476ZM19.6591 5.81876H21.2311V7.69076H19.6591V5.81876ZM23.5111 12.7908C25.8871 12.7908 27.3271 13.5108 27.3271 14.8068C27.3271 16.0908 25.8871 16.8228 23.5111 16.8228C21.1231 16.8228 19.6831 16.0908 19.6831 14.8068C19.6831 13.5108 21.1231 12.7908 23.5111 12.7908ZM23.5111 13.9788C22.0231 13.9788 21.2791 14.2308 21.2791 14.8068C21.2791 15.3708 22.0231 15.6348 23.5111 15.6348C24.9871 15.6348 25.7311 15.3708 25.7311 14.8068C25.7311 14.2308 24.9871 13.9788 23.5111 13.9788ZM30.5541 6.31076H31.8621V7.29476C31.8621 9.50276 30.9021 11.4468 28.7901 12.1788L27.9381 10.9188C29.7981 10.2948 30.5541 8.80676 30.5541 7.29476V6.31076ZM30.8781 6.31076H32.1741V7.45076C32.1741 8.78276 32.9181 10.0788 34.6581 10.6188L33.8301 11.8548C31.8261 11.1828 30.8781 9.45476 30.8781 7.45076V6.31076ZM35.2701 5.71076H36.8661V12.2748H35.2701V5.71076ZM36.4221 8.27876H38.3421V9.59876H36.4221V8.27876ZM33.2421 12.5268C35.5461 12.5268 36.9981 13.3308 36.9981 14.6748C36.9981 16.0308 35.5461 16.8228 33.2421 16.8228C30.9261 16.8228 29.4741 16.0308 29.4741 14.6748C29.4741 13.3308 30.9261 12.5268 33.2421 12.5268ZM33.2421 13.7628C31.8261 13.7628 31.0581 14.0628 31.0581 14.6748C31.0581 15.2988 31.8261 15.5868 33.2421 15.5868C34.6581 15.5868 35.4141 15.2988 35.4141 14.6748C35.4141 14.0628 34.6581 13.7628 33.2421 13.7628ZM45.6612 5.72276H47.2572V13.2108H45.6612V5.72276ZM46.6932 8.85476H48.6492V10.1748H46.6932V8.85476ZM43.5372 13.3188C45.9372 13.3188 47.3172 13.9428 47.3172 15.0828C47.3172 16.2228 45.9372 16.8348 43.5372 16.8348C41.1372 16.8348 39.7572 16.2228 39.7572 15.0828C39.7572 13.9428 41.1372 13.3188 43.5372 13.3188ZM43.5372 14.4708C42.0252 14.4708 41.3532 14.6508 41.3532 15.0828C41.3532 15.5028 42.0252 15.6828 43.5372 15.6828C45.0252 15.6828 45.7092 15.5028 45.7092 15.0828C45.7092 14.6508 45.0252 14.4708 43.5372 14.4708ZM40.9572 10.6068H42.5532V12.2388H40.9572V10.6068ZM38.4852 12.9228L38.3052 11.7228C40.2852 11.7228 42.9252 11.7108 45.1692 11.4108L45.2892 12.4908C42.9612 12.8988 40.4172 12.9228 38.4852 12.9228ZM38.5932 6.50276H44.8932V7.65476H38.5932V6.50276ZM41.7492 7.93076C43.3932 7.93076 44.4492 8.53076 44.4492 9.51476C44.4492 10.4988 43.3932 11.0988 41.7492 11.0988C40.1052 11.0988 39.0372 10.4988 39.0372 9.51476C39.0372 8.53076 40.1052 7.93076 41.7492 7.93076ZM41.7492 8.95076C40.9932 8.95076 40.5492 9.14276 40.5492 9.51476C40.5492 9.89876 40.9932 10.0788 41.7492 10.0788C42.5052 10.0788 42.9372 9.89876 42.9372 9.51476C42.9372 9.14276 42.5052 8.95076 41.7492 8.95076ZM40.9572 5.62676H42.5532V7.00676H40.9572V5.62676Z" fill="#97FC39"/>
</svg>
