<svg width="56" height="19" viewBox="0 0 56 19" fill="none" xmlns="http://www.w3.org/2000/svg">
<rect width="56" height="18.9775" rx="6" fill="#97FC39" fill-opacity="0.3"/>
<path d="M24.184 4.8537H25.78V10.4337H24.184V4.8537ZM20.476 5.2737H22.216C22.216 8.2257 20.512 9.9537 17.14 10.6857L16.612 9.4017C19.396 8.8497 20.476 7.62571 20.476 6.1377V5.2737ZM17.248 5.2737H21.148V6.5457H17.248V5.2737ZM21.784 6.2337H24.388V7.4457H21.784V6.2337ZM21.712 8.3937H24.328V9.5937H21.712V8.3937ZM18.436 10.8417H25.78V13.9017H20.056V15.2817H18.46V12.7257H24.184V12.0897H18.436V10.8417ZM18.46 14.6097H26.008V15.8577H18.46V14.6097ZM26.7991 10.9977H36.8671V12.2697H26.7991V10.9977ZM28.0591 14.7657H35.8951V16.0377H28.0591V14.7657ZM28.0591 12.8217H29.6551V15.1497H28.0591V12.8217ZM31.0351 9.4617H32.6311V11.5617H31.0351V9.4617ZM28.0351 5.0937H35.6431V8.17771H29.6311V9.3297H28.0471V7.0497H34.0711V6.3057H28.0351V5.0937ZM28.0471 8.9577H35.8591V10.1577H28.0471V8.9577Z" fill="#97FC39"/>
</svg>
