<svg width="24" height="24" viewBox="0 0 24 24" fill="none" xmlns="http://www.w3.org/2000/svg">
<path d="M19.5 9.91211C18.47 9.91211 17.6 10.5004 17.21 11.3354H14.29C13.9 10.5004 13.03 9.91211 12 9.91211C10.97 9.91211 10.1 10.5004 9.71 11.3354H6.79C6.4 10.5004 5.53 9.91211 4.5 9.91211C3.12 9.91211 2 10.9748 2 12.2843C2 13.5937 3.12 14.6565 4.5 14.6565C5.53 14.6565 6.4 14.0682 6.79 13.2332H9.71C10.1 14.0682 10.97 14.6565 12 14.6565C13.03 14.6565 13.9 14.0682 14.29 13.2332H17.21C17.6 14.0682 18.47 14.6565 19.5 14.6565C20.88 14.6565 22 13.5937 22 12.2843C22 10.9748 20.88 9.91211 19.5 9.91211Z" fill="black"/>
</svg>
