<svg width="56" height="19" viewBox="0 0 56 19" fill="none" xmlns="http://www.w3.org/2000/svg">
<rect width="56" height="18.9775" rx="6" fill="#97FC39" fill-opacity="0.3"/>
<path d="M17.792 5.8377H19.292V8.3337H20.708V5.8377H22.184V13.3377H17.792V5.8377ZM19.292 9.5817V12.0657H20.708V9.5817H19.292ZM25.508 4.8537H27.032V15.9657H25.508V4.8537ZM24.14 9.0897H25.988V10.3737H24.14V9.0897ZM23.072 5.0217H24.572V15.4617H23.072V5.0217ZM33.1511 6.6057H35.7551V7.8777H33.1511V6.6057ZM33.0671 8.9097H35.6711V10.1817H33.0671V8.9097ZM35.5031 4.8537H37.0991V11.2497H35.5031V4.8537ZM31.8791 5.6097H33.5831C33.5831 8.6337 31.8791 10.5777 28.5071 11.5017L27.8831 10.2417C30.7031 9.5097 31.8791 8.11771 31.8791 6.3777V5.6097ZM28.4951 5.6097H32.9951V6.8817H28.4951V5.6097ZM33.4151 11.3937C35.6711 11.3937 37.1711 12.2577 37.1711 13.6497C37.1711 15.0417 35.6711 15.9177 33.4151 15.9177C31.1591 15.9177 29.6591 15.0417 29.6591 13.6497C29.6591 12.2577 31.1591 11.3937 33.4151 11.3937ZM33.4151 12.6177C32.0591 12.6177 31.2431 12.9657 31.2431 13.6497C31.2431 14.3337 32.0591 14.6697 33.4151 14.6697C34.7831 14.6697 35.5991 14.3337 35.5991 13.6497C35.5991 12.9657 34.7831 12.6177 33.4151 12.6177Z" fill="#97FC39"/>
</svg>
